<svg xmlns="http://www.w3.org/2000/svg" viewBox="0 0 127.6 122.7"><defs><style>.cls-1{fill:#fff;}.cls-2{fill:#231815;}</style></defs><g id="レイヤー_2" data-name="レイヤー 2"><g id="レイヤー_1-2" data-name="レイヤー 1"><path d="M5.12,122.7c-.16-3.71-.3-7.42-.5-11.13Q4,99.92,3.33,88.28c-.13-2.23-.26-4.47-.39-6.81H0V71.16c.72,0,1.39,0,2.06,0C3,71.26,3.32,71,3.33,70c0-1.81.19-3.62.3-5.5H40.32c.11,1.74.3,3.51.29,5.27,0,1.18.41,1.56,1.52,1.41a16.21,16.21,0,0,1,1.85,0V81.4H41.05c-.13,2-.26,3.86-.37,5.74q-.91,16.65-1.83,33.29c0,.75,0,1.51,0,2.27ZM38,80.47H5.93l2.16,39H35.87C36.59,106.44,37.31,93.5,38,80.47Zm-.54-12.9h-31l-.38,6.64h-3v4.16H40.87v-4.2h-3Z"/><path class="cls-1" d="M38,80.47c-.72,13-1.44,26-2.16,39H8.09l-2.16-39ZM22,87.81A11.32,11.32,0,1,0,33.33,99.12,11.23,11.23,0,0,0,22,87.81Z"/><path class="cls-1" d="M37.49,67.57l.38,6.6h3v4.2H3.06V74.21h3l.38-6.64Z"/><path d="M22,87.81A11.32,11.32,0,1,1,10.63,99.15,11.24,11.24,0,0,1,22,87.81Zm0,19.92a8.61,8.61,0,1,0-8.66-8.6A8.71,8.71,0,0,0,22,107.73Z"/><path class="cls-1" d="M22,107.73a8.61,8.61,0,1,1,8.64-8.62A8.7,8.7,0,0,1,22,107.73Zm-.06-16a7.39,7.39,0,0,0-7.37,7.39,7.42,7.42,0,0,0,14.84,0A7.41,7.41,0,0,0,21.93,91.74Z"/><path d="M21.93,91.74a7.41,7.41,0,0,1,7.47,7.4,7.42,7.42,0,0,1-14.84,0A7.39,7.39,0,0,1,21.93,91.74ZM26,98c-2.19.2-3.37-.85-4-2.84-.57,2.15-2,2.89-4,2.85,1.78,1.23,2.42,2.7,1.53,4.8,1.72-1.5,3.32-1.23,5,0A3.53,3.53,0,0,1,26,98Z"/><path class="cls-1" d="M26,98a3.53,3.53,0,0,0-1.48,4.76c-1.72-1.18-3.32-1.45-5,0,.89-2.1.25-3.57-1.53-4.8,2.06,0,3.45-.7,4-2.85C22.62,97.11,23.8,98.16,26,98Z"/><path class="cls-2" d="M90.7,2A34.9,34.9,0,1,1,67.77,63.2C62.23,66,56.4,68.82,56.07,68.82c0,0,0,0,0,0A71.24,71.24,0,0,0,63.29,58.5,34.9,34.9,0,0,1,90.7,2m0-2A36.94,36.94,0,0,0,53.8,36.9a36.46,36.46,0,0,0,7.08,21.73,67.17,67.17,0,0,1-6.21,8.73,2,2,0,0,0,1.4,3.46c.58,0,.9,0,11.41-5.24A36.9,36.9,0,1,0,90.7,0Z"/><g id="qr-code"><rect class="cls-2" x="72.11" y="19.4" width="8.69" height="8.69"/><rect class="cls-2" x="98.19" y="19.4" width="8.69" height="8.69"/><path class="cls-2" d="M70.37,31.57H82.54a1.74,1.74,0,0,0,1.74-1.74V17.66a1.74,1.74,0,0,0-1.74-1.74H70.37a1.74,1.74,0,0,0-1.74,1.74V29.83A1.74,1.74,0,0,0,70.37,31.57Zm0-13.91H82.54V29.83H70.37Z"/><path class="cls-2" d="M110.35,17.66a1.73,1.73,0,0,0-1.73-1.74H96.45a1.74,1.74,0,0,0-1.74,1.74V29.83a1.74,1.74,0,0,0,1.74,1.74h12.17a1.73,1.73,0,0,0,1.73-1.74Zm-1.73,12.17H96.45V17.66h12.17Z"/><path class="cls-2" d="M70.37,57.64H82.54a1.74,1.74,0,0,0,1.74-1.74V43.73A1.73,1.73,0,0,0,82.54,42H70.37a1.73,1.73,0,0,0-1.74,1.73V55.9A1.74,1.74,0,0,0,70.37,57.64Zm0-13.91H82.54V55.9H70.37Z"/><rect class="cls-2" x="72.11" y="45.47" width="8.69" height="8.69"/><rect class="cls-2" x="68.63" y="33.3" width="6.95" height="3.48"/><rect class="cls-2" x="68.63" y="38.52" width="3.48" height="1.74"/><polygon class="cls-2" points="73.85 40.26 84.28 40.26 84.28 33.3 82.54 33.3 82.54 38.52 73.85 38.52 73.85 40.26"/><rect class="cls-2" x="86.02" y="21.13" width="3.48" height="10.43"/><rect class="cls-2" x="91.23" y="21.13" width="1.74" height="10.43"/><rect class="cls-2" x="96.45" y="42" width="5.22" height="5.22"/><rect class="cls-2" x="106.88" y="33.3" width="3.48" height="8.69"/><rect class="cls-2" x="105.14" y="43.73" width="5.22" height="3.48"/><rect class="cls-2" x="94.71" y="33.3" width="10.43" height="1.74"/><rect class="cls-2" x="94.71" y="36.78" width="10.43" height="3.48"/><rect class="cls-2" x="86.02" y="50.69" width="3.48" height="6.95"/><rect class="cls-2" x="91.23" y="52.43" width="5.22" height="5.22"/><rect class="cls-2" x="91.23" y="42" width="3.48" height="8.69"/><polygon class="cls-2" points="92.97 33.3 86.02 33.3 86.02 45.47 87.75 45.47 87.75 36.78 92.97 36.78 92.97 33.3"/><polygon class="cls-2" points="103.4 54.16 106.88 54.16 106.88 48.95 96.45 48.95 96.45 50.69 103.4 50.69 103.4 54.16"/><rect class="cls-2" x="108.62" y="48.95" width="1.74" height="5.22"/><rect class="cls-2" x="103.4" y="55.9" width="6.95" height="1.74"/><rect class="cls-2" x="98.19" y="55.9" width="3.48" height="1.74"/><polygon class="cls-2" points="89.49 17.66 86.02 17.66 86.02 19.4 92.97 19.4 92.97 15.92 89.49 15.92 89.49 17.66"/><rect class="cls-2" x="89.49" y="38.52" width="3.48" height="1.74"/><rect class="cls-2" x="86.02" y="47.21" width="3.48" height="1.74"/><rect class="cls-2" x="77.32" y="33.3" width="3.48" height="3.48"/><rect class="cls-2" x="98.19" y="52.43" width="3.48" height="1.74"/></g></g></g></svg>