<svg xmlns="http://www.w3.org/2000/svg" viewBox="0 0 138.92 134.18"><defs><style>.cls-1{fill:#fff;}.cls-2{fill:#231815;}</style></defs><g id="レイヤー_2" data-name="レイヤー 2"><g id="レイヤー_1-2" data-name="レイヤー 1"><path d="M68.58,79c1.6.22,3.19.47,4.79.64,5.64.62,11.29,1.2,16.93,1.8,2.71.29,3.64,1.91,2.43,4.37Q83,105.75,73.27,125.63a5.78,5.78,0,0,1-6.14,3.43q-11.25-1.16-22.5-2.41a2.42,2.42,0,0,1-2.15-3.5,10.47,10.47,0,0,1,.6-1.38c6.12-12.52,12.29-25,18.34-37.58C62.58,81.78,64,79.82,66.64,79ZM88.2,86.7c-.28-.06-.42-.1-.56-.12-7.15-.76-14.29-1.51-21.43-2.3-.67-.07-.87.23-1.11.71l-15,30.76a5.81,5.81,0,0,0-.29.81l.61.1c7.07.77,14.14,1.52,21.21,2.31.81.09,1-.34,1.32-.92l14.8-30.27C87.88,87.46,88,87.14,88.2,86.7ZM57,124.82a2.48,2.48,0,0,0,2.37-2.16A1.17,1.17,0,0,0,58,121.5a2.62,2.62,0,0,0-2.5,2.19C55.57,124.5,56,124.82,57,124.82Z"/><path d="M44.45,129.25l7.87.79,17.25,1.77a4.84,4.84,0,0,0,4.58-2.31,27.25,27.25,0,0,0,2.22-3.81q9-18.33,17.93-36.68c.4-.83.74-1.7,1.14-2.6.94,1.16,1.61,2.38.91,3.85-6.24,13.1-12.44,26.21-18.77,39.26-1.92,3.94-4.44,5-8.82,4.56-7-.76-13.92-1.5-20.89-2.17C46.2,131.75,45.4,130.69,44.45,129.25Z"/><path class="cls-1" d="M88.2,86.7c-.19.44-.32.76-.48,1.08l-14.8,30.27c-.28.58-.51,1-1.32.92-7.07-.79-14.14-1.54-21.21-2.31l-.61-.1a5.81,5.81,0,0,1,.29-.81L65.1,85c.24-.48.44-.78,1.11-.71,7.14.79,14.28,1.54,21.43,2.3C87.78,86.6,87.92,86.64,88.2,86.7Z"/><path class="cls-1" d="M57,124.82c-.91,0-1.38-.32-1.41-1.13A2.62,2.62,0,0,1,58,121.5a1.17,1.17,0,0,1,1.28,1.16A2.48,2.48,0,0,1,57,124.82Z"/><path class="cls-1" d="M125.13,4a9.82,9.82,0,0,1,9.79,9.78V64.23A9.82,9.82,0,0,1,125.13,74H75.25l-5.79,10L63.67,74H13.78A9.82,9.82,0,0,1,4,64.23V13.78A9.81,9.81,0,0,1,13.78,4H125.13m0-4H13.78A13.79,13.79,0,0,0,0,13.78V64.23A13.8,13.8,0,0,0,13.78,78H61.36l4.63,8a4,4,0,0,0,6.93,0l4.64-8h47.57a13.81,13.81,0,0,0,13.79-13.79V13.78A13.8,13.8,0,0,0,125.13,0Z"/><path class="cls-1" d="M69.46,85.05a1,1,0,0,1-.87-.5L63.09,75H13.78A10.8,10.8,0,0,1,3,64.23V13.78A10.8,10.8,0,0,1,13.78,3H125.13a10.8,10.8,0,0,1,10.79,10.78V64.23A10.8,10.8,0,0,1,125.13,75H75.83l-5.51,9.53A1,1,0,0,1,69.46,85.05Z"/><path class="cls-2" d="M125.13,4a9.82,9.82,0,0,1,9.79,9.78V64.23A9.82,9.82,0,0,1,125.13,74H75.25l-5.79,10L63.67,74H13.78A9.82,9.82,0,0,1,4,64.23V13.78A9.81,9.81,0,0,1,13.78,4H125.13m0-2H13.78A11.8,11.8,0,0,0,2,13.78V64.23A11.8,11.8,0,0,0,13.78,76H62.51l5.22,9a2,2,0,0,0,1.73,1,2,2,0,0,0,1.73-1l5.22-9h48.72a11.8,11.8,0,0,0,11.79-11.79V13.78A11.8,11.8,0,0,0,125.13,2Z"/><path class="cls-2" d="M17.41,24.49A11.82,11.82,0,0,1,19,27.39l-.75.36a5.15,5.15,0,0,0-.33-.84l-1.3.07v6h-.84V27c-.78,0-1.48.07-2,.08,0,.11-.1.15-.2.18l-.25-1.05h1c.31-.38.63-.81,1-1.29a14.27,14.27,0,0,0-1.81-2.07l.49-.6q.21.18.45.42A22.06,22.06,0,0,0,15.66,20l1,.42c0,.08-.14.12-.29.12a22.31,22.31,0,0,1-1.51,2.72,11.44,11.44,0,0,1,.84,1,28.37,28.37,0,0,0,1.56-2.67l1,.47a.37.37,0,0,1-.31.12,41.67,41.67,0,0,1-2.82,4.08l2.42,0a13.38,13.38,0,0,0-.82-1.39ZM15.2,28.3a.29.29,0,0,1-.29.14A12.66,12.66,0,0,1,14,31.8c-.2-.12-.51-.26-.7-.36A12.29,12.29,0,0,0,14.16,28ZM18.09,31a12,12,0,0,0-.92-2.79L17.9,28a13.3,13.3,0,0,1,1,2.76Zm4.81-1.78v2.45h3.54v.87h-8v-.87H22V29.24H19.23v-.87H22V26.26l1.2.07c0,.09-.08.16-.28.19v1.85h2.87v.87Zm2.27-8.57.66.31a.35.35,0,0,1-.14.13,8.69,8.69,0,0,1-2.54,3.66,9.55,9.55,0,0,0,3.43,1.44A4.08,4.08,0,0,0,26,27a10,10,0,0,1-3.57-1.67A12.85,12.85,0,0,1,19.13,27a2.9,2.9,0,0,0-.55-.75,11.16,11.16,0,0,0,3.13-1.5,8.44,8.44,0,0,1-2-3l.63-.19h-1.5v-.87H25Zm-4.65.91a7.36,7.36,0,0,0,1.9,2.62,7.53,7.53,0,0,0,2-2.62Z"/><path class="cls-2" d="M28.58,28.85a6.84,6.84,0,0,1-.77,3.36l-.56-.32A6.54,6.54,0,0,0,28,28.72ZM32.81,27l.46,0a2.58,2.58,0,0,0,0,.29c-.16,3.62-.32,4.86-.67,5.29s-.45.36-1.23.36a7.22,7.22,0,0,1-.79,0,2.05,2.05,0,0,0-.21-.77c.51,0,1,.06,1.15.06.55,0,.63-.56.76-2l-.48.2A8,8,0,0,0,31,28.54l.48-.17a9.82,9.82,0,0,1,.81,1.78h0c.05-.6.1-1.37.14-2.35H28.9v.36h-.81v-7.6h5v.81h-2v1.34h1.65v.77H31.16v1.36h1.65v.77H31.16V27h1.65Zm-2.44-5.63H28.9v1.34h1.47Zm0,3.47V23.48H28.9v1.36Zm-1.47.77V27h1.47v-1.4Zm.28,5.93A12.82,12.82,0,0,0,29,28.92l.53-.06a13.64,13.64,0,0,1,.24,2.59Zm1.3-2.87A9.72,9.72,0,0,1,31.09,31l-.54.12A11.18,11.18,0,0,0,30,28.78ZM37.42,20a.21.21,0,0,1-.18.16,10.54,10.54,0,0,0,3.44,3.37,5.46,5.46,0,0,0-.53.82,11.78,11.78,0,0,1-3.43-3.53,10.62,10.62,0,0,1-3.38,3.62,3.92,3.92,0,0,0-.47-.75A9.5,9.5,0,0,0,36.27,20Zm2.45,9H37.59a5.3,5.3,0,0,0,3,3.26A3.54,3.54,0,0,0,40,33a6.21,6.21,0,0,1-3.07-3.6A5.69,5.69,0,0,1,33.59,33a3,3,0,0,0-.58-.67A5.21,5.21,0,0,0,36.12,29H33.78V25.47h2.56V24.41H34.59v-.8H39v.8H37.19v1.06h2.68Zm-5.3-.77h1.7a9.59,9.59,0,0,0,.07-1.31v-.67H34.57Zm4.47-2H37.19v.69c0,.43,0,.87,0,1.29H39Z"/><path class="cls-2" d="M43.15,33V25a16,16,0,0,1-1.59,2.3c-.12-.22-.34-.67-.49-.88a19,19,0,0,0,3.33-6.32l1.11.36c0,.1-.14.16-.31.15A26.77,26.77,0,0,1,44,23.33l.32.1c0,.08-.09.15-.28.18V33Zm11.34-1.58v.84h-8V33h-.88V24.27l1.15.07c0,.1-.09.17-.27.19v6.88Zm-6.63-7.84H49.5c0-.38.11-.82.15-1.28H45.77v-.84h4c0-.52.08-1,.11-1.48l1.2.08c0,.1-.09.17-.28.18,0,.37-.07.79-.11,1.22h3.67v.84H50.56c-.05.45-.11.9-.16,1.28h3.12v6.66H47.86Zm4.75,2V24.31H48.76v1.23Zm0,2V26.26H48.76V27.5Zm0,2V28.22H48.76v1.27Z"/><path class="cls-2" d="M25.83,43.63c0,.06-.12.1-.18.13a12.11,12.11,0,0,1-3.32,4.48,6.41,6.41,0,0,0-.86-.57,8.44,8.44,0,0,0,2.79-3.48h-10v-.95H24.79l.16-.07Zm-5.47,2.55c0,.11-.14.21-.32.24-.4,3.31-1.54,6.46-4.42,8.13a7.26,7.26,0,0,0-.83-.65C17.65,52.33,18.67,49.4,19,46Z"/><path class="cls-2" d="M39.31,43.26a.36.36,0,0,1-.27.11.39.39,0,0,1-.14,0,33.31,33.31,0,0,1-4,3.35l.34.15a.38.38,0,0,1-.31.19v7.52h-1v-7.2a40.88,40.88,0,0,1-5.34,3.12,5.26,5.26,0,0,0-.59-.77,35.44,35.44,0,0,0,10.27-7.24Z"/><path class="cls-2" d="M53.56,47.86H48.83l.23.07c0,.09-.12.16-.28.17-.37,2.61-1.33,4.93-4.32,6.4a7.5,7.5,0,0,0-.76-.7c2.91-1.4,3.73-3.36,4-5.94H42.3v-.93H53.56Zm-1.39-4h-8.6V43h8.6Z"/><path class="cls-2" d="M67.1,54.19c-.21-.47-.46-1-.74-1.48-2.92.31-7.71.6-9.85.71a.37.37,0,0,1-.27.28l-.37-1.26c.41,0,.92,0,1.47,0,.92-2.69,2.25-6.88,3-9.68l1.36.36a.41.41,0,0,1-.41.2c-.77,2.58-2,6.33-2.94,9.08,2.33-.1,5.65-.34,7.5-.51a24.72,24.72,0,0,0-2.5-3.42l.84-.47a27.61,27.61,0,0,1,3.87,5.8Z"/><path class="cls-2" d="M87.7,47.71a18.38,18.38,0,0,1-5.93,1c-8.17,0-10.11-5.6-10.11-9.65,0-5.82,4.13-9.87,10.66-9.87a12.77,12.77,0,0,1,4.8.81l-.6,1.73a10.48,10.48,0,0,0-4.26-.78c-4.91,0-8.22,2.92-8.22,8S77.18,47,81.93,47a8.61,8.61,0,0,0,3.53-.55V40.3H81.25V38.62H87.7Z"/><path class="cls-2" d="M101.87,48.49h-11V29.35H101.4v1.76H93.15v6.48h7.76v1.73H93.15v7.41h8.72Z"/><path class="cls-2" d="M116.59,31.13h-6.15V48.49h-2.27V31.13h-6.12V29.37h14.54Z"/></g></g></svg>