<svg xmlns="http://www.w3.org/2000/svg" viewBox="0 0 58.17 53.19"><defs><style>.cls-1{fill:#fff;}</style></defs><g id="レイヤー_2" data-name="レイヤー 2"><g id="レイヤー_1-2" data-name="レイヤー 1"><path d="M58.17,17.52c-.52.83-1.08,1.63-1.53,2.49a3.15,3.15,0,0,0-.29,1.39q0,15.21,0,30.41v1.38H1.68V51.82c0-10.13,0-20.26,0-30.4A3.54,3.54,0,0,0,1,19.63a4,4,0,0,1-.75-3.9C2,10.81,3.69,5.86,5.37.92A1.12,1.12,0,0,1,6.65,0c2,.06,3.92,0,6,0-.77,3.16-1.52,6.17-2.24,9.19-.67,2.84-1.28,5.7-2,8.53A4.09,4.09,0,0,1,6,20.68a1,1,0,0,0-.73,1.08q0,13.56,0,27.1a7.23,7.23,0,0,0,.07.72H29.49V30.36H46v19.2h6.62V21.39A19.2,19.2,0,0,1,50,18.7,8.87,8.87,0,0,1,49.26,16Q47.51,8.82,45.74,1.63c-.12-.47-.21-.95-.35-1.6,2.27,0,4.45,0,6.63,0,.22,0,.51.57.63.93,1.69,4.82,3.35,9.65,5,14.48.13.39.33.75.49,1.13ZM32.27,33V49.55h11V33Z"/><path d="M25.65.07h6.81c.12,2,.25,4,.35,5.92.18,3.6.39,7.2.5,10.8a4.23,4.23,0,0,1-3.76,4.3A4.33,4.33,0,0,1,24.86,18a3.56,3.56,0,0,1-.15-1.12c.25-5.35.53-10.69.8-16A5.21,5.21,0,0,1,25.65.07Z"/><path d="M15.59.08h7c-.23,2.46-.45,4.86-.68,7.26Q21.42,12.16,21,17a4.31,4.31,0,0,1-5.53,4,4,4,0,0,1-3-4.49C13.42,11,14.52,5.57,15.59.08Z"/><path d="M35.46.08h7q.88,4.48,1.79,9c.45,2.26.89,4.53,1.33,6.79A4.22,4.22,0,0,1,42,21.07a4.29,4.29,0,0,1-4.82-3.78c-.54-5-1-10-1.47-15C35.59,1.55,35.53.84,35.46.08Z"/><path d="M21.94,29.07v9.52H12.45V29.07Z"/><path class="cls-1" d="M32.27,33h11V49.55h-11Z"/></g></g></svg>