<svg xmlns="http://www.w3.org/2000/svg" viewBox="0 0 84.73 98"><defs><style>.cls-1{fill:#fff;}.cls-2{writing-mode:tb;text-orientation:upright;glyph-orientation-vertical:0deg;font-size:14px;fill:#231815;font-family:Jun501Pro-Bold, Jun501Pro Bold-83pv-RKSJ-H;font-weight:700;}</style></defs><g id="レイヤー_2" data-name="レイヤー 2"><g id="レイヤー_1-2" data-name="レイヤー 1"><path class="cls-1" d="M24,23.75H69.34V93.09H0V23.75H22.13c-.29.11-.58.24-.87.34a5.75,5.75,0,0,0-.08,11A5.73,5.73,0,0,0,27.63,33a5.48,5.48,0,0,0-.07-6.74A16.88,16.88,0,0,0,24,23.75ZM15.06,55l.27.1c.23,7.46.44,14.92.68,22.38.14,4.18.29,8.35.48,12.53a2.83,2.83,0,0,0,5.64.26,19.43,19.43,0,0,0,.18-2q.45-8.61.87-17.22a9.21,9.21,0,0,1,.18-1,1.4,1.4,0,0,1,.4.92l.57,12.52c.1,2.16.16,4.31.34,6.46a2.91,2.91,0,0,0,3.06,2.93,3,3,0,0,0,2.75-3.09c.09-1.57.16-3.14.22-4.71q.71-18.4,1.36-36.79c0-.77.25-1.13,1-1.23,2.72-.34,5.44-.74,8.15-1.11s5.7-.77,8.54-1.18a3.1,3.1,0,0,0,2.79-2.2c.67-2.2-.83-4.08-3.28-4.09q-12.4,0-24.82,0a34.57,34.57,0,0,0-4.43.29c-5.4.69-8.46,3.32-9.8,8.59C8.77,53.08,7.42,58.94,6,64.8c-.39,1.65.23,2.92,1.49,3.33s2.55-.27,3.2-1.92c1-2.68,2-5.37,3.06-8.06C14.2,57.08,14.63,56,15.06,55ZM37.31,67.22c.27,3.58.52,7,.79,10.46.32,4,.61,8.06,1,12.08a3.22,3.22,0,0,0,3.28,3q8.09.09,16.17,0A3.45,3.45,0,0,0,62,89.42q.69-8.31,1.33-16.64c.14-1.82.24-3.64.36-5.56ZM53,51.58l-7.84,6.61,3.48,4.13L56.5,55.7Z"/><path d="M24,23.75a16.88,16.88,0,0,1,3.55,2.47A5.48,5.48,0,0,1,27.63,33a5.75,5.75,0,0,1-10.4-3.42,5.66,5.66,0,0,1,4-5.45c.29-.1.58-.23.87-.34Z"/><path d="M15.06,55c-.43,1.06-.86,2.12-1.27,3.19-1,2.69-2,5.38-3.06,8.06-.65,1.65-1.86,2.35-3.2,1.92S5.65,66.45,6,64.8c1.38-5.86,2.73-11.72,4.21-17.54,1.34-5.27,4.4-7.9,9.8-8.59a34.57,34.57,0,0,1,4.43-.29q12.42,0,24.82,0c2.45,0,4,1.89,3.28,4.09a3.1,3.1,0,0,1-2.79,2.2c-2.84.41-5.69.79-8.54,1.18s-5.43.77-8.15,1.11c-.79.1-1,.46-1,1.23Q31.42,66.57,30.7,85c-.06,1.57-.13,3.14-.22,4.71a3,3,0,0,1-2.75,3.09,2.91,2.91,0,0,1-3.06-2.93c-.18-2.15-.24-4.3-.34-6.46l-.57-12.52a1.4,1.4,0,0,0-.4-.92,9.21,9.21,0,0,0-.18,1q-.43,8.61-.87,17.22a19.43,19.43,0,0,1-.18,2A2.83,2.83,0,0,1,16.49,90c-.19-4.18-.34-8.35-.48-12.53-.24-7.46-.45-14.92-.68-22.38Z"/><path d="M37.31,67.22H63.7c-.12,1.92-.22,3.74-.36,5.56Q62.69,81.1,62,89.42a3.45,3.45,0,0,1-3.43,3.33q-8.09.09-16.17,0a3.22,3.22,0,0,1-3.28-3c-.42-4-.71-8.05-1-12.08C37.83,74.24,37.58,70.8,37.31,67.22ZM55.52,86.47h0c0,.45,0,.9-.08,1.34-.08.81-.1,1.66.92,1.79s1.17-.73,1.23-1.52c.33-5.15.64-10.3,1-15.45.05-.8-.11-1.53-1-1.59s-1.15.64-1.2,1.46Q56,79.48,55.52,86.47Zm-3.89-6.19c0-2.56,0-5.11,0-7.67,0-.77-.12-1.55-1.05-1.58s-1.21.75-1.21,1.58V88c0,.82.15,1.64,1.15,1.65s1.11-.84,1.11-1.65C51.62,85.39,51.63,82.84,51.63,80.28Zm-9-6.29h0c.1,1.75.21,3.5.31,5.24q.27,4.51.55,9c.08,1.11.8,1.77,1.48,1.28A2.12,2.12,0,0,0,45.59,88c-.14-3.45-.38-6.9-.6-10.35-.11-1.84-.19-3.69-.43-5.51-.05-.4-.71-.72-1.08-1.07-.34.4-.84.76-1,1.22A5.44,5.44,0,0,0,42.59,74Z"/><path d="M53,51.58,56.5,55.7l-7.83,6.62-3.48-4.13Z"/><path class="cls-1" d="M55.52,86.47q.43-7,.84-14c0-.82.28-1.51,1.2-1.46s1.07.79,1,1.59c-.33,5.15-.64,10.3-1,15.45-.06.79-.15,1.67-1.23,1.52s-1-1-.92-1.79c0-.44,0-.89.08-1.34Z"/><path class="cls-1" d="M51.63,80.28c0,2.56,0,5.11,0,7.67,0,.81-.09,1.66-1.11,1.65s-1.15-.83-1.15-1.65V72.61c0-.83.2-1.63,1.21-1.58s1.05.81,1.05,1.58C51.62,75.17,51.63,77.72,51.63,80.28Z"/><path class="cls-1" d="M42.59,74a5.44,5.44,0,0,1-.08-1.74c.13-.46.63-.82,1-1.22.37.35,1,.67,1.08,1.07.24,1.82.32,3.67.43,5.51.22,3.45.46,6.9.6,10.35a2.12,2.12,0,0,1-.69,1.56c-.68.49-1.4-.17-1.48-1.28q-.29-4.5-.55-9c-.1-1.74-.21-3.49-.31-5.24Z"/><text class="cls-2" transform="translate(77.73 0)">ゴミはゴミ箱へ</text></g></g></svg>