<svg xmlns="http://www.w3.org/2000/svg" viewBox="0 0 71.24 71.24"><defs><style>.cls-1{fill:#fff;}</style></defs><g id="レイヤー_2" data-name="レイヤー 2"><g id="レイヤー_1-2" data-name="レイヤー 1"><path class="cls-1" d="M51.56,0H71.24V71.24H0V0H18.29A3.56,3.56,0,0,0,16.7,3.42c.05,5.26,0,10.53,0,15.8v1.64l-4.87-1.77a6,6,0,0,0-4.32,0,6,6,0,0,0-4.08,5.58A5.81,5.81,0,0,0,6.89,30.5c1.47.73,3,1.25,4.61,1.88C7,37,7.28,40,12.39,43.66A6.1,6.1,0,0,0,9.7,49.37c.25,2.49,1.76,4,4,5.1l-.61.56A5.9,5.9,0,0,0,14.7,65.18a21.54,21.54,0,0,0,4,1.48,24.48,24.48,0,0,0,4.2.08,3.08,3.08,0,0,1,1.38.12,26.8,26.8,0,0,0,12.41,4c6.62.49,12.73-.7,17.51-5.75A25.65,25.65,0,0,0,60.35,53c2.6-11.13,5-22.3,7.53-33.46a5,5,0,0,0-5.81-6.3c-3.86.49-6.26,2.88-8,6.12-.26.47-.52,1-.77,1.44C53,14.87,53,9.1,53,3.32A3.6,3.6,0,0,0,51.56,0Z"/><path d="M51.56,0A3.6,3.6,0,0,1,53,3.32c-.05,5.78,0,11.55.25,17.45.25-.48.51-1,.77-1.44,1.76-3.24,4.16-5.63,8-6.12a5,5,0,0,1,5.81,6.3C65.39,30.67,63,41.84,60.35,53a25.65,25.65,0,0,1-6.14,12.09c-4.78,5-10.89,6.24-17.51,5.75a26.8,26.8,0,0,1-12.41-4,3.08,3.08,0,0,0-1.38-.12,24.48,24.48,0,0,1-4.2-.08,21.54,21.54,0,0,1-4-1.48A5.9,5.9,0,0,1,13.06,55l.61-.56c-2.21-1.08-3.72-2.61-4-5.1a6.1,6.1,0,0,1,2.69-5.71C7.28,40,7,37,11.5,32.38c-1.57-.63-3.14-1.15-4.61-1.88a5.81,5.81,0,0,1-3.44-5.83,6,6,0,0,1,4.08-5.58,6,6,0,0,1,4.32,0l4.87,1.77V19.22c0-5.27,0-10.54,0-15.8A3.56,3.56,0,0,1,18.29,0ZM21.17,6.72a10.4,10.4,0,0,0-.11,1c0,8.45,0,16.9,0,25.34a2.17,2.17,0,0,0,.78,1.42C24,36.23,25,38.72,24,41.16a21.5,21.5,0,0,1-2.22,3.55,6.12,6.12,0,0,1,3.77,6.56H48.79V49.69c0-13.76,0-27.51,0-41.27,0-1.48-.48-1.74-1.81-1.73-8.08.06-16.16,0-24.23,0ZM25.59,65c4.32,3.07,12.19,4.48,18,3.38C50,67.17,54.25,63.25,56.51,57.33a87.39,87.39,0,0,0,3.23-11.41c2-8.75,3.95-17.53,5.92-26.3.71-3.15-.91-4.82-4.1-4.14a7.33,7.33,0,0,0-4.7,3.41,23.21,23.21,0,0,0-3.78,11.84C52.84,39.86,53,49,53,58.15c0,.51,0,1,0,1.52a2.08,2.08,0,0,1-2.24,2.12c-1.29,0-2.59,0-3.88,0-6.23-.06-12.46-.11-18.68-.21-.93,0-1.43.2-1.63,1.2A11.23,11.23,0,0,1,25.59,65ZM16.72,32c0-2.88,0-5.5,0-8.12a1.23,1.23,0,0,0-.63-.89,58.75,58.75,0,0,0-5.57-2,4,4,0,0,0-2.65,7.58C10.66,29.76,13.56,30.79,16.72,32Zm5.47,7.21A3.53,3.53,0,0,0,20,36a47.41,47.41,0,0,0-4.79-1.78,3.67,3.67,0,0,0-4.34,2.1A3.56,3.56,0,0,0,12.38,41a28.72,28.72,0,0,0,5.42,2A3.69,3.69,0,0,0,22.19,39.21ZM20,64.91c2.62,0,4.09-1.13,4.53-2.92a3.56,3.56,0,0,0-2-4.14A39.72,39.72,0,0,0,17.77,56a3.66,3.66,0,0,0-4.33,1.89c-.79,1.52-.57,3.65.88,4.48A49.9,49.9,0,0,0,20,64.91Zm3.39-14.65a3.5,3.5,0,0,0-2.19-3.39,44.09,44.09,0,0,0-4.52-1.71,3.69,3.69,0,0,0-4.61,2.26,3.65,3.65,0,0,0,2,4.73,40.62,40.62,0,0,0,4.65,1.74A3.66,3.66,0,0,0,23.38,50.26Zm13.18,5.39c-.4-.32-.93-1-1.57-1.16A1.41,1.41,0,0,0,33.28,56a1.48,1.48,0,0,0,1.48,1.65C35.8,57.71,36.36,57.11,36.56,55.65Z"/><path class="cls-1" d="M21.17,6.72h1.62c8.07,0,16.15,0,24.23,0,1.33,0,1.82.25,1.81,1.73-.06,13.76,0,27.51,0,41.27v1.58H25.56a6.12,6.12,0,0,0-3.77-6.56A21.5,21.5,0,0,0,24,41.16c.94-2.44,0-4.93-2.14-6.63a2.17,2.17,0,0,1-.78-1.42c0-8.44,0-16.89,0-25.34A10.4,10.4,0,0,1,21.17,6.72Z"/><path class="cls-1" d="M25.59,65a11.23,11.23,0,0,0,.94-2.23c.2-1,.7-1.21,1.63-1.2,6.22.1,12.45.15,18.68.21,1.29,0,2.59,0,3.88,0A2.08,2.08,0,0,0,53,59.67c0-.5,0-1,0-1.52,0-9.14-.17-18.29.07-27.42a23.21,23.21,0,0,1,3.78-11.84,7.33,7.33,0,0,1,4.7-3.41c3.19-.68,4.81,1,4.1,4.14-2,8.77-3.87,17.55-5.92,26.3a87.39,87.39,0,0,1-3.23,11.41C54.25,63.25,50,67.17,43.58,68.39,37.78,69.49,29.91,68.08,25.59,65Z"/><path class="cls-1" d="M16.72,32c-3.16-1.21-6.06-2.24-8.88-3.44A4,4,0,0,1,10.49,21a58.75,58.75,0,0,1,5.57,2,1.23,1.23,0,0,1,.63.89C16.74,26.5,16.72,29.12,16.72,32Z"/><path class="cls-1" d="M22.19,39.21A3.69,3.69,0,0,1,17.8,43a28.72,28.72,0,0,1-5.42-2,3.56,3.56,0,0,1-1.49-4.68,3.67,3.67,0,0,1,4.34-2.1A47.41,47.41,0,0,1,20,36,3.53,3.53,0,0,1,22.19,39.21Z"/><path class="cls-1" d="M20,64.91a49.9,49.9,0,0,1-5.67-2.51c-1.45-.83-1.67-3-.88-4.48A3.66,3.66,0,0,1,17.77,56a39.72,39.72,0,0,1,4.77,1.82,3.56,3.56,0,0,1,2,4.14C24.08,63.78,22.61,65,20,64.91Z"/><path class="cls-1" d="M23.38,50.26a3.66,3.66,0,0,1-4.69,3.63A40.62,40.62,0,0,1,14,52.15a3.65,3.65,0,0,1-2-4.73,3.69,3.69,0,0,1,4.61-2.26,44.09,44.09,0,0,1,4.52,1.71A3.5,3.5,0,0,1,23.38,50.26Z"/><path class="cls-1" d="M36.56,55.65c-.2,1.46-.76,2.06-1.8,2A1.48,1.48,0,0,1,33.28,56,1.41,1.41,0,0,1,35,54.49C35.63,54.62,36.16,55.33,36.56,55.65Z"/></g></g></svg>