<svg xmlns="http://www.w3.org/2000/svg" viewBox="0 0 112.41 129.7"><defs><style>.cls-1{fill:#fff;}.cls-2{fill:#231815;}</style></defs><g id="レイヤー_2" data-name="レイヤー 2"><g id="レイヤー_1-2" data-name="レイヤー 1"><path d="M6.73,129.7l-1-.4a5,5,0,0,1-3.33-4.5Q1.65,111.9.92,99C.81,97.21.71,95.43.6,93.59H36.88c-.09,1.78-.17,3.52-.27,5.26q-.49,8.55-1,17.09c-.17,2.87-.3,5.74-.49,8.61s-1.9,4.35-4.45,5.15Z"/><path d="M25.78,81c2.5.95,5,1.83,7.45,2.83,1.39.57,2.7,1.32,4.05,2A1.87,1.87,0,0,1,38.39,88c-.2,1.12-.42,2.25-.64,3.44L0,84.37a31.14,31.14,0,0,1,1-4.1,2.12,2.12,0,0,1,1.61-1c3.65-.17,7.3-.25,11-.28,1,0,1.54,0,1.94-1.17a5.16,5.16,0,0,1,6.13-3.15,5.36,5.36,0,0,1,4.2,5.71A6,6,0,0,0,25.78,81Zm-3.19-.7a2.14,2.14,0,0,0-1.72-2.69,2.17,2.17,0,0,0-2.67,1.8Z"/><path class="cls-1" d="M22.59,80.31l-4.39-.89a2.17,2.17,0,0,1,2.67-1.8A2.14,2.14,0,0,1,22.59,80.31Z"/><path class="cls-2" d="M75.5,2A34.9,34.9,0,1,1,52.57,63.2C47,66,41.21,68.82,40.88,68.82c0,0,0,0,0,0A71.08,71.08,0,0,0,48.1,58.5,34.89,34.89,0,0,1,75.5,2m0-2A36.94,36.94,0,0,0,38.6,36.9a36.53,36.53,0,0,0,7.08,21.73,67.42,67.42,0,0,1-6.2,8.73A2,2,0,0,0,39,69.57a2,2,0,0,0,1.86,1.25c.57,0,.9,0,11.41-5.24A36.9,36.9,0,1,0,75.5,0Z"/><g id="qr-code"><rect class="cls-2" x="58.12" y="19.52" width="8.69" height="8.69"/><rect class="cls-2" x="84.2" y="19.52" width="8.69" height="8.69"/><path class="cls-2" d="M56.38,31.69H68.55A1.74,1.74,0,0,0,70.29,30V17.78A1.74,1.74,0,0,0,68.55,16H56.38a1.74,1.74,0,0,0-1.74,1.74V30A1.74,1.74,0,0,0,56.38,31.69Zm0-13.91H68.55V30H56.38Z"/><path class="cls-2" d="M96.37,17.78A1.74,1.74,0,0,0,94.63,16H82.46a1.74,1.74,0,0,0-1.74,1.74V30a1.74,1.74,0,0,0,1.74,1.74H94.63A1.74,1.74,0,0,0,96.37,30ZM94.63,30H82.46V17.78H94.63Z"/><path class="cls-2" d="M56.38,57.76H68.55A1.73,1.73,0,0,0,70.29,56V43.86a1.74,1.74,0,0,0-1.74-1.74H56.38a1.74,1.74,0,0,0-1.74,1.74V56A1.73,1.73,0,0,0,56.38,57.76Zm0-13.9H68.55V56H56.38Z"/><rect class="cls-2" x="58.12" y="45.59" width="8.69" height="8.69"/><rect class="cls-2" x="54.64" y="33.43" width="6.95" height="3.48"/><rect class="cls-2" x="54.64" y="38.64" width="3.48" height="1.74"/><polygon class="cls-2" points="59.86 40.38 70.29 40.38 70.29 33.43 68.55 33.43 68.55 38.64 59.86 38.64 59.86 40.38"/><rect class="cls-2" x="72.03" y="21.26" width="3.48" height="10.43"/><rect class="cls-2" x="77.24" y="21.26" width="1.74" height="10.43"/><rect class="cls-2" x="82.46" y="42.12" width="5.22" height="5.22"/><rect class="cls-2" x="92.89" y="33.43" width="3.48" height="8.69"/><rect class="cls-2" x="91.15" y="43.86" width="5.22" height="3.48"/><rect class="cls-2" x="80.72" y="33.43" width="10.43" height="1.74"/><rect class="cls-2" x="80.72" y="36.9" width="10.43" height="3.48"/><rect class="cls-2" x="72.03" y="50.81" width="3.48" height="6.95"/><rect class="cls-2" x="77.24" y="52.55" width="5.22" height="5.22"/><rect class="cls-2" x="77.24" y="42.12" width="3.48" height="8.69"/><polygon class="cls-2" points="78.98 33.43 72.03 33.43 72.03 45.59 73.77 45.59 73.77 36.9 78.98 36.9 78.98 33.43"/><polygon class="cls-2" points="89.41 54.29 92.89 54.29 92.89 49.07 82.46 49.07 82.46 50.81 89.41 50.81 89.41 54.29"/><rect class="cls-2" x="94.63" y="49.07" width="1.74" height="5.22"/><rect class="cls-2" x="89.41" y="56.02" width="6.95" height="1.74"/><rect class="cls-2" x="84.2" y="56.02" width="3.48" height="1.74"/><polygon class="cls-2" points="75.5 17.78 72.03 17.78 72.03 19.52 78.98 19.52 78.98 16.04 75.5 16.04 75.5 17.78"/><rect class="cls-2" x="75.5" y="38.64" width="3.48" height="1.74"/><rect class="cls-2" x="72.03" y="47.33" width="3.48" height="1.74"/><rect class="cls-2" x="63.34" y="33.43" width="3.48" height="3.48"/><rect class="cls-2" x="84.2" y="52.55" width="3.48" height="1.74"/></g></g></g></svg>