<?xml version="1.0" encoding="utf-8"?>
<!-- Generator: Adobe Illustrator 25.0.0, SVG Export Plug-In . SVG Version: 6.00 Build 0)  -->
<svg version="1.1" id="レイヤー_1" xmlns="http://www.w3.org/2000/svg" xmlns:xlink="http://www.w3.org/1999/xlink" x="0px"
	 y="0px" viewBox="0 0 354.42 166.7" style="enable-background:new 0 0 354.42 166.7;" xml:space="preserve">
<style type="text/css">
	.st0{fill:#686868;stroke:#FFFFFF;stroke-miterlimit:10;}
	.st1{fill:#686868;stroke:#FFFFFF;stroke-width:3;}
	.st2{fill:#686868;}
</style>
<g>
	<g>
		<path class="st0" d="M269.45,114.96c-0.49-4.11-0.98-8.22-1.48-12.34c0.54-1.06,1.4-1.53,2.59-1.68c2.21-0.28,4.4-0.81,6.62-1.04
			c2.19-0.23,3.53-1.17,3.85-3.44c0.11-0.8,0.36-1.6,0.65-2.36c0.58-1.51,0.09-2.6-1.1-3.58c-2.02-1.66-4-3.37-5.95-5.11
			c-1.3-1.15-1.41-2.18-0.36-3.57c2.01-2.65,4.06-5.27,6.14-7.86c1.05-1.31,2.15-1.43,3.57-0.46c1.4,0.95,2.74,1.97,4.12,2.95
			c4.75,3.36,3.5,3.09,8.56,0.43c1.67-0.88,2.19-2.07,2.02-3.83c-0.24-2.49-0.4-5-0.57-7.5c-0.12-1.74,0.42-2.47,2.08-2.68
			c3.4-0.44,6.82-0.82,10.23-1.23c1.51-0.18,2.38,0.45,2.62,1.98c0.37,2.31,0.87,4.61,1.12,6.94c0.23,2.23,1.1,3.69,3.47,4.01
			c0.8,0.11,1.6,0.36,2.36,0.65c1.51,0.58,2.6,0.09,3.57-1.1c1.66-2.02,3.4-3.97,5.1-5.96c1.02-1.2,2.2-1.4,3.44-0.45
			c2.73,2.09,5.42,4.21,8.09,6.37c1.14,0.92,1.33,2.08,0.46,3.31c-1.01,1.42-2.04,2.83-3.04,4.26c-3.35,4.77-3.15,3.38-0.43,8.54
			c0.88,1.67,2.06,2.2,3.83,2.03c2.55-0.25,5.11-0.37,7.66-0.59c1.47-0.13,2.32,0.53,2.5,1.94c0.46,3.51,0.88,7.03,1.26,10.55
			c0.15,1.41-0.51,2.25-1.97,2.47c-2.26,0.34-4.5,0.88-6.77,1.09c-2.45,0.23-3.98,1.23-4.26,3.81c-0.07,0.69-0.31,1.38-0.57,2.04
			c-0.59,1.5-0.1,2.6,1.09,3.58c2.02,1.66,3.97,3.4,5.96,5.1c1.19,1.02,1.41,2.2,0.46,3.44c-2.09,2.73-4.21,5.42-6.37,8.1
			c-0.98,1.21-2.18,1.31-3.45,0.38c-1.32-0.96-2.64-1.92-3.98-2.86c-4.99-3.49-3.45-3.28-8.82-0.45c-1.54,0.81-2.06,1.93-1.9,3.58
			c0.23,2.44,0.32,4.89,0.58,7.33c0.13,1.19-0.12,2.14-1.02,2.91c-4.11,0.49-8.22,0.98-12.34,1.48c-1.04-0.55-1.54-1.38-1.68-2.58
			c-0.24-2.05-0.81-4.07-0.96-6.13c-0.2-2.6-1.27-4.18-3.98-4.46c-0.64-0.07-1.28-0.29-1.88-0.53c-1.5-0.6-2.6-0.1-3.58,1.09
			c-1.66,2.02-3.4,3.97-5.1,5.96c-1.02,1.19-2.2,1.41-3.44,0.46c-2.73-2.09-5.42-4.21-8.1-6.36c-1.21-0.98-1.31-2.18-0.38-3.45
			c0.96-1.32,1.92-2.65,2.86-3.98c3.5-4.99,3.27-3.47,0.45-8.82c-0.81-1.54-1.93-2.06-3.58-1.9c-2.44,0.23-4.89,0.32-7.33,0.58
			C271.17,116.11,270.23,115.86,269.45,114.96z M323.63,101.49c-0.73-6.46-7.99-13.09-16.94-10.81c-5.21,1.32-11.88,7.67-9.53,16.84
			c1.31,5.1,7.58,11.67,16.78,9.44C320.24,115.43,325,108.15,323.63,101.49z"/>
	</g>
	<g>
		<path class="st0" d="M187.43,53.16c0.91-5.05,1.82-10.1,2.73-15.15c1.03-1.06,2.22-1.3,3.68-1.05c2.73,0.47,5.5,0.64,8.22,1.17
			c2.68,0.52,4.61-0.11,5.81-2.68c0.42-0.91,1.01-1.76,1.62-2.56c1.23-1.58,1.04-3.05-0.01-4.64c-1.79-2.7-3.51-5.45-5.2-8.22
			c-1.12-1.84-0.88-3.09,0.87-4.36c3.34-2.41,6.72-4.77,10.12-7.09c1.73-1.17,3.06-0.92,4.4,0.75c1.31,1.63,2.54,3.33,3.82,4.99
			c4.4,5.7,3.03,4.94,9.98,3.61c2.3-0.44,3.35-1.66,3.78-3.81c0.62-3.04,1.34-6.06,2.05-9.09c0.49-2.1,1.4-2.77,3.44-2.42
			c4.19,0.72,8.38,1.5,12.56,2.25c1.85,0.33,2.66,1.4,2.39,3.29c-0.41,2.87-0.64,5.78-1.19,8.62c-0.53,2.72-0.04,4.77,2.65,6.01
			c0.91,0.42,1.76,1,2.56,1.62c1.58,1.23,3.04,1.05,4.63-0.01c2.7-1.79,5.47-3.47,8.21-5.21c1.64-1.05,3.12-0.85,4.24,0.72
			c2.47,3.46,4.9,6.96,7.28,10.48c1.02,1.5,0.82,2.94-0.66,4.09c-1.71,1.32-3.44,2.61-5.15,3.94c-5.7,4.44-4.95,2.87-3.61,9.97
			c0.44,2.3,1.64,3.35,3.8,3.79c3.11,0.63,6.19,1.42,9.29,2.08c1.79,0.38,2.56,1.47,2.26,3.2c-0.73,4.33-1.51,8.65-2.33,12.96
			c-0.33,1.73-1.42,2.48-3.23,2.21c-2.8-0.42-5.65-0.6-8.42-1.17c-2.99-0.62-5.16,0.01-6.43,2.97c-0.34,0.79-0.87,1.52-1.42,2.21
			c-1.24,1.57-1.06,3.04-0.01,4.63c1.79,2.7,3.47,5.47,5.21,8.21c1.04,1.64,0.87,3.12-0.71,4.24c-3.46,2.47-6.96,4.9-10.48,7.28
			c-1.6,1.08-3.06,0.76-4.23-0.8c-1.22-1.62-2.44-3.24-3.68-4.83c-4.64-5.94-2.9-5.13-10.29-3.73c-2.12,0.4-3.14,1.54-3.55,3.55
			c-0.61,2.97-1.4,5.92-1.97,8.9c-0.28,1.46-0.92,2.49-2.27,3.08c-5.05-0.91-10.1-1.82-15.15-2.73c-1.03-1.03-1.32-2.19-1.06-3.66
			c0.46-2.52,0.52-5.12,1.08-7.61c0.71-3.16,0.01-5.42-3.1-6.73c-0.73-0.31-1.41-0.81-2.03-1.31c-1.56-1.25-3.04-1.07-4.63-0.01
			c-2.7,1.79-5.47,3.47-8.21,5.21c-1.64,1.04-3.12,0.88-4.24-0.7c-2.47-3.46-4.9-6.96-7.28-10.48c-1.08-1.6-0.76-3.06,0.8-4.23
			c1.62-1.22,3.24-2.44,4.83-3.68c5.95-4.64,5.13-2.92,3.73-10.29c-0.4-2.12-1.54-3.14-3.55-3.55c-2.97-0.61-5.92-1.4-8.9-1.97
			C189.05,55.15,188.02,54.51,187.43,53.16z M256.52,56.86c1.48-7.92-4.71-18.41-16.15-18.96c-6.66-0.32-16.86,4.78-17.41,16.5
			c-0.3,6.51,4.74,16.58,16.45,17.27C247.44,72.15,255.73,65.24,256.52,56.86z"/>
	</g>
	<g>
		<path class="st1" d="M2.4,72.71c0-2.78-0.44-12.27-0.44-15.63c0-1.02,1.17-1.46,2.92-1.46c3.07,0,7.74,1.61,7.74,4.09
			c0,2.34-0.58,9.49-0.58,13v40.3l27.45-18.98c2.48-1.75,4.67-3.94,5.84-5.11c0.44-0.58,1.32-0.73,2.34-0.73
			c3.36,0,8.76,2.63,8.76,4.67c0,0.29-0.29,0.73-0.73,1.02c-4.09,2.78-8.32,4.97-10.81,6.72l-22.2,15.48
			c8.32,8.32,22.49,23.51,31.69,32.71c2.19,2.04,5.26,4.38,8.32,5.7c0.58,0.29,0.73,0.58,0.73,1.02c0,2.04-5.11,5.4-8.18,5.4
			c-0.58,0-1.17-0.15-1.46-0.44c-2.48-1.9-5.55-4.38-7.59-6.57c-7.88-8.18-22.05-24.09-30.67-32.71l-3.51,2.19v20.01
			c0,1.75,0.73,12.12,0.73,15.48c0,1.02-1.17,1.46-2.92,1.46c-3.07,0-7.74-1.61-7.74-4.09c0-2.34,0.29-10.81,0.29-12.85V72.71z"/>
		<path class="st1" d="M82.57,72.71c-3.8,0-7.3-4.67-7.3-8.76c0-3.8,2.34-7.01,7.3-7.01c3.51,0,7.16,4.82,7.16,9.05
			C89.73,69.64,87.1,72.71,82.57,72.71z M77.61,105.12c0-2.77-0.44-12.27-0.44-15.63c0-0.88,1.17-1.31,2.78-1.31
			c3.21,0,8.03,1.61,8.03,3.94c0,2.34-0.29,9.49-0.29,13v38.41c0,1.75,0.44,12.12,0.44,15.48c0,0.88-1.17,1.31-2.78,1.31
			c-3.21,0-8.03-1.61-8.03-3.94c0-2.34,0.29-10.81,0.29-12.85V105.12z"/>
		<path class="st1" d="M162.74,72.27c0-5.99-0.58-12.12-0.58-15.48c0-1.02,1.31-1.46,2.92-1.46c3.07,0,7.59,1.61,7.59,4.09
			c0,2.34-0.29,7.89-0.29,13v59.43c0,8.47,1.75,17.38,4.97,21.32c0.15,0.29,0.29,0.58,0.29,1.02c0,2.34-3.36,6.43-6.43,6.43
			c-4.67,0-7.89-14.31-8.03-18.99c-8.47,14.02-17.82,19.86-29.21,19.86c-14.17,0-23.95-10.66-23.95-29.79
			c0-23.07,17.38-43.81,36.36-43.81c7.3,0,13.29,3.07,16.36,7.59V72.27z M162.74,103.23c-0.44,0.44-1.02,0.58-1.46,0.58
			c-0.44,0-0.88-0.15-1.31-0.73c-2.92-4.09-8.32-6.72-13.43-6.72c-14.46,0-26.58,17.96-26.58,34.9c0,14.31,5.7,21.47,14.02,21.47
			c12.12,0,28.77-15.63,28.77-34.17V103.23z"/>
		<path class="st1" d="M257.22,92.13c-1.32,8.47-1.9,31.4-1.9,38.55c0,4.23,0,15.19,5.11,23.07c0.15,0.29,0.29,0.58,0.29,0.88
			c0,2.19-3.21,6.13-6.42,6.13c-4.53,0-7.16-11.1-7.89-19.13c-7.3,13.73-17.96,19.86-28.91,19.86c-14.17,0-23.51-9.78-23.51-28.19
			c0-24.83,18.11-45.41,36.07-45.41c6.86,0,12.7,2.92,16.06,9.64V89.5c0-1.02,1.31-1.46,3.07-1.46c3.36,0,8.03,1.46,8.03,3.8V92.13z
			 M243.5,104.69c-0.44,0-0.73-0.15-1.02-0.58c-3.36-5.55-8.03-7.74-12.41-7.74c-11.98,0-26.14,15.48-26.14,36.22
			c0,14.75,5.7,20.15,13.43,20.15c13.87,0,27.31-14.75,28.33-36.36c0.15-2.78,0.15-8.18,0.29-13
			C245.25,104.1,244.22,104.69,243.5,104.69z"/>
	</g>
	<g>
		<path class="st2" d="M2.89,74.17c0-2.78-0.44-12.27-0.44-15.63c0-1.02,1.17-1.46,2.92-1.46c3.07,0,7.74,1.61,7.74,4.09
			c0,2.34-0.58,9.49-0.58,13v40.3l27.45-18.98c2.48-1.75,4.67-3.94,5.84-5.11c0.44-0.58,1.32-0.73,2.34-0.73
			c3.36,0,8.76,2.63,8.76,4.67c0,0.29-0.29,0.73-0.73,1.02c-4.09,2.78-8.32,4.97-10.81,6.72l-22.2,15.48
			c8.32,8.32,22.49,23.51,31.69,32.71c2.19,2.04,5.26,4.38,8.32,5.7c0.58,0.29,0.73,0.58,0.73,1.02c0,2.04-5.11,5.4-8.18,5.4
			c-0.58,0-1.17-0.15-1.46-0.44c-2.48-1.9-5.55-4.38-7.59-6.57c-7.88-8.18-22.05-24.09-30.67-32.71l-3.51,2.19v20.01
			c0,1.75,0.73,12.12,0.73,15.48c0,1.02-1.17,1.46-2.92,1.46c-3.07,0-7.74-1.61-7.74-4.09c0-2.34,0.29-10.81,0.29-12.85V74.17z"/>
		<path class="st2" d="M83.06,74.17c-3.8,0-7.3-4.67-7.3-8.76c0-3.8,2.34-7.01,7.3-7.01c3.51,0,7.16,4.82,7.16,9.05
			C90.21,71.1,87.58,74.17,83.06,74.17z M78.09,106.59c0-2.77-0.44-12.27-0.44-15.63c0-0.88,1.17-1.31,2.78-1.31
			c3.21,0,8.03,1.61,8.03,3.94c0,2.34-0.29,9.49-0.29,13V145c0,1.75,0.44,12.12,0.44,15.48c0,0.88-1.17,1.31-2.78,1.31
			c-3.21,0-8.03-1.61-8.03-3.94c0-2.34,0.29-10.81,0.29-12.85V106.59z"/>
		<path class="st2" d="M163.23,73.73c0-5.99-0.58-12.12-0.58-15.48c0-1.02,1.31-1.46,2.92-1.46c3.07,0,7.59,1.61,7.59,4.09
			c0,2.34-0.29,7.89-0.29,13v59.43c0,8.47,1.75,17.38,4.97,21.32c0.15,0.29,0.29,0.58,0.29,1.02c0,2.34-3.36,6.43-6.43,6.43
			c-4.67,0-7.89-14.31-8.03-18.99c-8.47,14.02-17.82,19.86-29.21,19.86c-14.17,0-23.95-10.66-23.95-29.79
			c0-23.07,17.38-43.81,36.36-43.81c7.3,0,13.29,3.07,16.36,7.59V73.73z M163.23,104.69c-0.44,0.44-1.02,0.58-1.46,0.58
			c-0.44,0-0.88-0.15-1.31-0.73c-2.92-4.09-8.32-6.72-13.43-6.72c-14.46,0-26.58,17.96-26.58,34.9c0,14.31,5.7,21.47,14.02,21.47
			c12.12,0,28.77-15.63,28.77-34.17V104.69z"/>
		<path class="st2" d="M257.71,93.59c-1.32,8.47-1.9,31.4-1.9,38.55c0,4.23,0,15.19,5.11,23.07c0.15,0.29,0.29,0.58,0.29,0.88
			c0,2.19-3.21,6.13-6.43,6.13c-4.53,0-7.16-11.1-7.89-19.13c-7.3,13.73-17.96,19.86-28.91,19.86c-14.17,0-23.51-9.78-23.51-28.19
			c0-24.83,18.11-45.41,36.07-45.41c6.86,0,12.7,2.92,16.06,9.64v-8.03c0-1.02,1.31-1.46,3.07-1.46c3.36,0,8.03,1.46,8.03,3.8V93.59
			z M243.98,106.15c-0.44,0-0.73-0.15-1.02-0.58c-3.36-5.55-8.03-7.74-12.41-7.74c-11.98,0-26.14,15.48-26.14,36.22
			c0,14.75,5.7,20.15,13.43,20.15c13.87,0,27.31-14.75,28.33-36.36c0.15-2.78,0.15-8.18,0.29-13
			C245.73,105.57,244.71,106.15,243.98,106.15z"/>
	</g>
</g>
</svg>
